:SAMPLES-PER-SECOND 30
:FULLY-SPECIFIED
:DEGREES
16
root  69.158 40.4985 -25.0449 174.683 -85.2883 -172.447
RightUpLeg  -0.927638 -7.64127 -4.96643
RightLeg  2.6489 -4.81378 3.64409
RightFoot  -2.2904 -0.041817 0.330965
RightToes  -1.74624e-010 0 -3.6325e-017
Spine  -0.258633 -0.458364 1.10738
Spine1  2.60481 -0.480942 -0.277406
HEad  -3.23077 1.69378 -1.03005
LeftShoulder1  0.893881 -0.578091 -14.8644
LeftArm  -22.0809 11.7741 -7.65507
LeftForeArm  15.0675 -9.93166 -1.11811
LeftHand  -0.244104 0.0205437 5.32207
RightShoulder  0.824585 0.632648 12.9088
RightArm  -23.2129 -0.449294 4.79663
RightForeArm  -3.26994 8.64121 4.02503
RightHand  -1.16219 4.23791 -14.2173
LeftUpLeg  2.12945 6.18039 4.10057
LeftLeg  0.454388 15.7663 -4.65907
LeftFoot  -3.63005 -0.000359686 0.309391
LeftToes  -2.54691e-011 4.12133e-011 -4.68171e-012
17
root  69.1626 40.487 -25.081 175.606 -85.1979 -173.408
RightUpLeg  -1.05447 -7.64034 -4.97099
RightLeg  2.97797 -4.74691 3.60034
RightFoot  -2.59301 -0.0354877 0.22987
RightToes  -1.74624e-010 0 -3.6325e-017
Spine  -0.28939 -0.441835 1.55156
Spine1  3.34057 -0.388026 -0.71141
HEad  -2.99833 1.97649 -1.46486
LeftShoulder1  1.27579 -1.63236 -18.0742
LeftArm  -24.3647 12.879 -8.62849
LeftForeArm  16.6014 -13.5462 -1.24605
LeftHand  -0.244104 0.0205437 5.32207
RightShoulder  1.20234 1.77401 16.0334
RightArm  -22.7006 -2.56347 5.74802
RightForeArm  -7.54175 12.828 4.71816
RightHand  -1.13486 3.12471 -15.6819
LeftUpLeg  2.18546 6.17602 4.07896
LeftLeg  0.452367 15.9246 -4.64442
LeftFoot  -3.6708 0.00381865 0.26274
LeftToes  -2.54691e-011 4.12133e-011 -4.68171e-012
18
root  69.1674 40.4703 -25.1415 176.629 -85.0861 -174.479
RightUpLeg  -1.25335 -7.67421 -4.97429
RightLeg  3.50711 -4.63252 3.57212
RightFoot  -3.04646 -0.036391 0.206268
RightToes  -1.74624e-010 0 -3.6325e-017
Spine  -0.376449 -0.351873 2.18438
Spine1  4.26364 -0.171579 -1.35194
HEad  -2.87887 1.72367 -1.83062
LeftShoulder1  1.93509 -3.23233 -22.2589
LeftArm  -26.4667 13.7099 -9.04343
LeftForeArm  17.2418 -16.6074 -1.86322
LeftHand  -0.244104 0.0205437 5.32207
RightShoulder  1.73195 3.11916 19.7137
RightArm  -21.0686 -4.80733 6.96091
RightForeArm  -12.0932 16.8181 5.16531
RightHand  -0.991045 1.10713 -17.7381
LeftUpLeg  2.22696 6.26388 4.13118
LeftLeg  0.528578 15.9562 -4.68906
LeftFoot  -3.81811 0.00147655 0.316656
LeftToes  -2.54691e-011 4.12133e-011 -4.68171e-012
19
root  69.1669 40.4494 -25.23 177.719 -84.9873 -175.731
RightUpLeg  -1.42783 -7.637 -4.90326
RightLeg  4.26285 -4.57567 3.36563
RightFoot  -3.6891 -0.0532675 0.424843
RightToes  -1.74624e-010 0 -3.6325e-017
Spine  -0.162342 -0.238406 2.47833
Spine1  5.00911 -0.0281038 -1.46923
HEad  -2.79675 1.3812 -2.29822
LeftShoulder1  2.85947 -5.05468 -27.2162
LeftArm  -27.5029 14.183 -9.25184
LeftForeArm  17.8981 -18.6176 -2.50757
LeftHand  -0.244104 0.0205437 5.32207
RightShoulder  2.33461 4.40295 23.323
RightArm  -18.7513 -6.64284 8.65571
RightForeArm  -12.5165 19.683 5.30121
RightHand  -0.812809 -0.0918175 -17.7429
LeftUpLeg  2.38037 6.40443 4.26448
LeftLeg  0.665296 15.7755 -4.75212
LeftFoot  -3.96091 0.0245783 -0.0264486
LeftToes  -2.54691e-011 4.12133e-011 -4.68171e-012
20
root  69.1466 40.4271 -25.3488 178.658 -85.0178 -176.892
RightUpLeg  -1.53538 -7.54418 -4.71209
RightLeg  5.10637 -4.66963 2.97342
RightFoot  -4.4182 -0.0710728 0.675848
RightToes  -1.74624e-010 0 -3.6325e-017
Spine  0.0579578 -0.176253 2.54219
Spine1  5.89544 -0.00668952 -1.26138
HEad  -2.78003 1.04332 -2.8439
LeftShoulder1  3.87 -6.63666 -32.0983
LeftArm  -27.2013 14.0132 -10.1135
LeftForeArm  18.827 -19.3105 -2.76851
LeftHand  -0.244104 0.0205437 5.32207
RightShoulder  2.96934 5.52538 26.8375
RightArm  -15.9997 -7.95604 10.7095
RightForeArm  -9.33939 21.0693 5.23464
RightHand  -0.61484 -0.694374 -15.1374
LeftUpLeg  2.59645 6.5709 4.46243
LeftLeg  0.879818 15.4912 -4.78121
LeftFoot  -4.06823 0.0553418 -0.491057
LeftToes  -2.54691e-011 4.12133e-011 -4.68171e-012
21
root  69.0896 40.4001 -25.4984 179.181 -85.2189 -177.595
RightUpLeg  -1.59346 -7.57872 -4.46742
RightLeg  5.95717 -4.83311 2.6327
RightFoot  -5.20092 -0.0715196 0.684237
RightToes  -1.74624e-010 0 -3.6325e-017
Spine  -0.0026412 -0.203179 2.75383
Spine1  7.09711 -0.0456486 -1.22297
HEad  -2.8828 0.718254 -3.3216
LeftShoulder1  4.77209 -7.79663 -36.1217
LeftArm  -25.5447 13.3521 -12.0616
LeftForeArm  18.9132 -18.8012 -2.75107
LeftHand  -0.244104 0.0205437 5.32207
RightShoulder  3.62296 6.48673 30.3056
RightArm  -13.2552 -8.93218 13.2081
RightForeArm  -6.28113 21.124 5.12347
RightHand  -0.4305 -1.53422 -12.8984
LeftUpLeg  2.75213 6.77439 4.72551
LeftLeg  1.23941 15.1213 -4.75572
LeftFoot  -4.37324 0.0608268 -0.562948
LeftToes  -2.54691e-011 4.12133e-011 -4.68171e-012
22
root  68.9838 40.3645 -25.6783 179.505 -85.48 -178.061
RightUpLeg  -1.54892 -7.8709 -4.26913
RightLeg  6.7793 -4.87635 2.47909
RightFoot  -6.13748 -0.0633385 0.569415
RightToes  -1.74624e-010 0 -3.6325e-017
Spine  -0.041095 -0.261392 3.03885
Spine1  8.06093 -0.109959 -1.20858
HEad  -2.88444 0.613005 -3.71136
LeftShoulder1  5.56646 -8.70314 -39.3628
LeftArm  -22.6871 12.7991 -14.6295
LeftForeArm  17.8187 -17.4662 -2.76475
LeftHand  -0.244104 0.0205437 5.32207
RightShoulder  4.25626 7.2816 33.5209
RightArm  -10.789 -9.86005 16.2548
RightForeArm  -4.10578 20.1618 5.07185
RightHand  -0.300473 -2.6448 -12.3318
LeftUpLeg  2.87886 6.98797 5.05356
LeftLeg  1.73882 14.558 -4.67899
LeftFoot  -4.96473 0.0723383 -0.768904
LeftToes  -2.54691e-011 4.12133e-011 -4.68171e-012
23
root  68.8285 40.3224 -25.8903 -179.522 -85.6733 -179.167
RightUpLeg  -1.40146 -8.22762 -4.11044
RightLeg  7.55835 -4.78369 2.36127
RightFoot  -7.24408 -0.0672232 0.634205
RightToes  -1.74624e-010 0 -3.6325e-017
Spine  0.153737 -0.299289 3.06666
Spine1  8.48384 -0.229114 -0.850057
HEad  -2.53617 0.975411 -4.14756
LeftShoulder1  6.30067 -9.46976 -42.1563
LeftArm  -19.6955 12.7084 -17.3287
LeftForeArm  17.4365 -15.7249 -2.93667
LeftHand  -0.244104 0.0205437 5.32207
RightShoulder  4.85139 7.93898 36.4053
RightArm  -9.26295 -10.9114 19.5436
RightForeArm  -0.6218 18.4056 5.11701
RightHand  -0.253414 -2.73654 -10.7877
LeftUpLeg  3.0058 7.15132 5.39232
LeftLeg  2.40003 13.9973 -4.5203
LeftFoot  -5.59135 0.118403 -1.69099
LeftToes  -2.54691e-011 4.12133e-011 -4.68171e-012
24
root  68.633 40.2715 -26.1374 -178.046 -85.7874 179.301
RightUpLeg  -1.35499 -8.40713 -3.84837
RightLeg  8.43422 -4.66671 2.10963
RightFoot  -8.35497 -0.0772037 0.77326
RightToes  -1.74624e-010 0 -3.6325e-017
Spine  0.21669 -0.402893 2.85385
Spine1  8.87789 -0.487693 -0.200515
HEad  -2.30992 1.50913 -4.70524
LeftShoulder1  6.85732 -9.96567 -44.3223
LeftArm  -18.0853 13.1325 -20.3357
LeftForeArm  18.9319 -14.1061 -3.08246
LeftHand  -0.244104 0.0205437 5.32207
RightShoulder  5.40455 8.4968 38.9522
RightArm  -10.2688 -11.8627 22.8985
RightForeArm  4.40184 15.7166 5.25525
RightHand  -0.270483 -1.03613 -7.24786
LeftUpLeg  2.91227 7.2107 5.6876
LeftLeg  3.49447 13.8404 -4.14131
LeftFoot  -6.24743 0.150124 -2.51726
LeftToes  -2.54691e-011 4.12133e-011 -4.68171e-012
25
root  68.4068 40.1862 -26.4106 -178.411 -85.8468 179.735
RightUpLeg  -1.61183 -8.54074 -3.34825
RightLeg  9.69382 -4.46928 1.81805
RightFoot  -9.41849 -0.0741692 0.594454
RightToes  -1.74624e-010 0 -3.6325e-017
Spine  0.0410542 -0.671152 2.77708
Spine1  9.44103 -0.934827 0.541779
HEad  -2.68919 1.93886 -5.3306
LeftShoulder1  7.13493 -10.1177 -45.653
LeftArm  -18.3927 14.374 -23.8317
LeftForeArm  20.5812 -13.3132 -2.96467
LeftHand  -0.244104 0.0205437 5.32207
RightShoulder  5.84765 8.91506 40.8991
RightArm  -13.8203 -12.3785 26.6374
RightForeArm  8.59141 12.1071 5.19581
RightHand  -0.238159 0.63914 -4.57997
LeftUpLeg  2.22139 7.82053 6.02046
LeftLeg  5.66389 13.2806 -3.19809
LeftFoot  -7.43556 0.138839 -2.75674
LeftToes  -2.54691e-011 4.12133e-011 -4.68171e-012
26
root  68.161 40.0291 -26.6797 177.018 -85.7859 -175.576
RightUpLeg  -2.1341 -8.94554 -2.61888
RightLeg  11.4971 -3.98024 1.6983
RightFoot  -10.6871 -0.0734408 0.154244
RightToes  -1.74624e-010 0 -3.6325e-017
Spine  0.25296 -0.968683 3.31405
Spine1  9.5445 -1.3599 1.27818
HEad  -3.50933 2.37738 -6.02436
LeftShoulder1  7.27507 -10.1313 -46.5259
LeftArm  -19.7164 16.5366 -27.291
LeftForeArm  20.7595 -13.5482 -2.70677
LeftHand  -0.244104 0.0205437 5.32207
RightShoulder  6.13511 9.1701 42.1335
RightArm  -16.4519 -12.6944 30.6621
RightForeArm  8.86073 8.64072 4.83076
RightHand  -0.20162 -0.342361 -4.75693
LeftUpLeg  0.502316 11.2961 6.42678
LeftLeg  9.83855 9.63628 -1.08506
LeftFoot  -9.25363 0.123258 -3.95214
LeftToes  -2.54691e-011 4.12133e-011 -4.68171e-012
27
root  67.9129 39.8111 -26.9133 170.396 -85.5651 -168.907
RightUpLeg  -2.67813 -9.62259 -1.87952
RightLeg  13.585 -3.19546 1.7579
RightFoot  -12.2811 -0.082824 -0.0264823
RightToes  -1.74624e-010 0 -3.6325e-017
Spine  1.19133 -0.993168 4.71174
Spine1  9.09227 -1.32541 1.63031
HEad  -4.42262 2.60704 -6.75597
LeftShoulder1  7.48651 -10.2798 -47.3808
LeftArm  -20.3713 18.6399 -29.9628
LeftForeArm  20.4599 -13.9626 -2.6452
LeftHand  -0.244104 0.0205437 5.32207
RightShoulder  6.36471 9.37829 43.0589
RightArm  -16.0756 -13.4708 33.8288
RightForeArm  2.60232 6.8423 5.17351
RightHand  -0.100467 -3.85891 -6.74426
LeftUpLeg  -2.53087 15.1946 6.59401
LeftLeg  16.3493 5.8181 1.96216
LeftFoot  -10.4415 0.120321 -6.76012
LeftToes  -2.54691e-011 4.12133e-011 -4.68171e-012
28
root  67.6637 39.6143 -27.1047 166.65 -85.4387 -165.251
RightUpLeg  -2.92602 -10.2284 -1.44637
RightLeg  15.3824 -2.51831 1.77877
RightFoot  -13.8175 -0.0892831 0.189482
RightToes  -1.74624e-010 0 -3.6325e-017
Spine  2.31211 -0.657865 6.72509
Spine1  9.02238 -0.641269 0.983866
HEad  -5.53214 1.90048 -7.17086
LeftShoulder1  7.78273 -10.6268 -48.0605
LeftArm  -19.2612 19.5573 -31.6785
LeftForeArm  21.3661 -13.7568 -2.90092
LeftHand  -0.244104 0.0205437 5.32207
RightShoulder  6.62122 9.63865 43.9557
RightArm  -14.461 -14.8864 35.1614
RightForeArm  -7.55148 7.44149 6.43062
RightHand  0.0260607 -6.14485 -8.73933
LeftUpLeg  -6.61095 12.6802 6.5811
LeftLeg  24.8677 9.23563 5.07829
LeftFoot  -9.29737 0.201267 -8.2835
LeftToes  -2.54691e-011 4.12133e-011 -4.68171e-012
29
root  67.3744 39.4921 -27.2584 165.986 -85.7384 -164.809
RightUpLeg  -2.68739 -10.545 -1.38458
RightLeg  16.5976 -2.40595 1.61307
RightFoot  -14.9686 -0.0895208 0.379293
RightToes  -1.74624e-010 0 -3.6325e-017
Spine  3.1028 -0.216393 8.90729
Spine1  9.75279 0.374391 -0.532047
HEad  -7.01405 0.170105 -6.76469
LeftShoulder1  8.07683 -11.1001 -48.2675
LeftArm  -16.9803 19.6921 -32.7302
LeftForeArm  23.44 -13.3709 -3.38337
LeftHand  -0.244104 0.0205437 5.32207
RightShoulder  6.78591 9.83015 44.4253
RightArm  -13.2998 -16.1829 35.0976
RightForeArm  -11.9237 9.1215 7.21446
RightHand  -0.10948 -4.14538 -9.32046
LeftUpLeg  -11.3418 10.1753 5.99349
LeftLeg  34.0747 11.9824 8.90716
LeftFoot  -6.14741 0.304723 -6.11644
LeftToes  -2.54691e-011 4.12133e-011 -4.68171e-012
30
root  66.9933 39.4254 -27.3879 169.038 -86.3955 -168.11
RightUpLeg  -1.99941 -10.6575 -1.7284
RightLeg  17.2861 -2.78095 1.41699
RightFoot  -15.9066 -0.0939856 0.343581
RightToes  -1.74624e-010 0 -3.6325e-017
Spine  3.58343 0.0957902 10.5522
Spine1  10.53 1.25921 -2.08647
HEad  -8.53396 -1.5718 -5.56267
LeftShoulder1  8.31767 -11.5787 -48.1318
LeftArm  -14.7298 20.3127 -33.2896
LeftForeArm  25.2762 -13.5264 -3.83372
LeftHand  -0.244104 0.0205437 5.32207
RightShoulder  6.73012 9.81447 44.095
RightArm  -12.2469 -16.3349 34.6448
RightForeArm  -5.39465 9.65806 6.98049
RightHand  -0.357198 -0.93428 -9.14391
LeftUpLeg  -15.9955 8.48088 4.67017
LeftLeg  41.4412 11.1934 10.7127
LeftFoot  -3.60674 0.196579 -2.49326
LeftToes  -2.54691e-011 4.12133e-011 -4.68171e-012
